<svg width="65" height="65" xmlns="http://www.w3.org/2000/svg" xmlns:xlink="http://www.w3.org/1999/xlink">
 <style type="text/css">.st0{fill:#88C5CC;}
	.st1{clip-path:url(#XMLID_22_);fill:#406A80;}
	.st2{clip-path:url(#XMLID_22_);fill:#395F73;}
	.st3{clip-path:url(#XMLID_22_);fill:#FFDC80;}
	.st4{clip-path:url(#XMLID_22_);fill:#F2CD6D;}
	.st5{clip-path:url(#XMLID_22_);fill:#FFD7CC;}
	.st6{clip-path:url(#XMLID_22_);fill:#F2CCC2;}
	.st7{clip-path:url(#XMLID_22_);fill:#2179A6;}
	.st8{clip-path:url(#XMLID_22_);fill:#FFE1D9;}
	.st9{clip-path:url(#XMLID_22_);fill:#F2D6CE;}
	.st10{clip-path:url(#XMLID_22_);fill:#F5F5F5;}
	.st11{fill:#F5F5F5;}
	.st12{fill:#2179A6;}</style>
 <g>
  <title>background</title>
  <rect fill="none" id="canvas_background" height="67" width="67" y="-1" x="-1"/>
 </g>
 <g>
  <title>Layer 1</title>
  <g id="XMLID_1_">
   <circle r="32.5" cy="32.536118" cx="32.536117" class="st0" id="XMLID_3_"/>
   <g id="XMLID_6_">
    <defs transform="translate(0,-0.6185553073883057) translate(0.20618510246276855,-0.20618510246276855) translate(-0.20618510246276855,0) translate(0,-0.20618510246276855) translate(0,0.8247404098510742) translate(-0.4123702049255371,-0.20618510246276855) translate(1.4432957172393799,0.20618510246276855) translate(-2.268036127090454,0) translate(0.8247403502464294,-12.577290534973145) translate(-15.051512718200684,-2.680406332015991) ">
     <circle r="32.5" cy="48" cx="48" id="XMLID_5_"/>
    </defs>
    <clipPath transform="translate(0,-0.6185553073883057) translate(0.20618510246276855,-0.20618510246276855) translate(-0.20618510246276855,0) translate(0,-0.20618510246276855) translate(0,0.8247404098510742) translate(-0.4123702049255371,-0.20618510246276855) translate(1.4432957172393799,0.20618510246276855) translate(-2.268036127090454,0) translate(0.8247403502464294,-12.577290534973145) translate(-15.051512718200684,-2.680406332015991) " id="XMLID_22_">
     <use id="svg_1" xlink:href="#XMLID_5_"/>
    </clipPath>
    <polygon points="55.03611755371094,60.33612608909607 49.13611602783203,49.93612456321716 32.53611755371094,46.93612456321716 15.936116218566895,49.93612456321716 10.036117553710938,60.33612608909607 8.036117553710938,68.03611540794373 32.53611755371094,68.03611540794373 57.03611755371094,68.03611540794373 " class="st1" id="XMLID_7_"/>
    <polygon points="55.03611755371094,60.33612608909607 49.13611602783203,49.93612456321716 32.53611755371094,46.93612456321716 31.536117553710938,47.13612151145935 47.13611602783203,49.93612456321716 52.936119079589844,60.33612608909607 55.03611755371094,68.03611540794373 57.03611755371094,68.03611540794373 " class="st2" id="XMLID_8_"/>
    <path d="m51.436117,35.536118c-2.4,4.5 -8.5,9 -18.9,9s-16.6,-4.5 -18.9,-9c0,0 4.1,-6.6 4.7,-9c1.8,-7.3 6.4,-13.5 14.2,-13.5c7.8,0 12.4,6.2 14.2,13.5c0.6,2.4 4.7,9 4.7,9z" class="st3" id="XMLID_9_"/>
    <path d="m46.736117,26.536118c-1.8,-7.3 -6.4,-13.5 -14.2,-13.5c-0.4,0 -0.8,0 -1.2,0.1c7.1,0.6 11.3,6.6 13,13.5c0.6,2.4 4.7,9 4.7,9c-2.3,4.3 -8,8.6 -17.8,9c0.4,0 0.8,0 1.2,0c10.5,0 16.6,-4.5 18.9,-9c0.1,-0.1 -4,-6.7 -4.6,-9.1z" class="st4" id="XMLID_10_"/>
    <path d="m32.536117,53.536118c-1.2,0 -4.1,-6.3 -4.1,-6.3l-1.2,-8.8l10.5,0l-1.2,8.6c0.1,0 -2.8,6.5 -4,6.5z" class="st5" id="XMLID_11_"/>
    <path d="m36.236117,38.436118l-1.2,8.6c0,0 -2,4.5 -3.3,6c0.3,0.3 0.6,0.5 0.8,0.5c1.2,0 4.1,-6.5 4.1,-6.5l1.2,-8.6l-1.6,0z" class="st6" id="XMLID_12_"/>
    <circle r="1.2" cy="31.336118" cx="22.036117" class="st7" id="XMLID_13_"/>
    <circle r="1.2" cy="31.336118" cx="42.436117" class="st7" id="XMLID_14_"/>
    <ellipse ry="11.9" rx="9.9" cy="30.336118" cx="32.536117" class="st8" id="XMLID_15_"/>
    <path d="m32.536117,18.536118c-0.3,0 -0.6,0 -0.9,0.1c5.1,0.5 9,5.6 9,11.8c0,6.2 -4,11.3 -9,11.8c0.3,0 0.6,0.1 0.9,0.1c5.5,0 9.9,-5.3 9.9,-11.9c0,-6.6 -4.4,-11.9 -9.9,-11.9z" class="st9" id="XMLID_16_"/>
    <path d="m38.936117,20.236118c0,5.8 -16.3,0.7 -16.3,11.2c0,0 -1,-15.6 9.9,-15.6c4.7,-0.1 6.4,4.4 6.4,4.4z" class="st3" id="XMLID_17_"/>
    <polygon points="43.23611831665039,49.236119985580444 36.836116790771484,45.336122274398804 32.53611755371094,53.53612303733826 28.23611831665039,45.336122274398804 21.836116790771484,49.236119985580444 25.73611831665039,49.93612456321716 24.63611602783203,51.236119985580444 32.53611755371094,57.43612456321716 40.436119079589844,51.236119985580444 39.336116790771484,49.93612456321716 " class="st10" id="XMLID_18_"/>
   </g>
   <ellipse ry="1.5" rx="2" cy="29.536118" cx="27.936117" class="st11" id="XMLID_4_"/>
   <circle r="1" cy="29.536118" cx="27.936117" class="st12" id="XMLID_19_"/>
   <ellipse ry="1.5" rx="2" cy="29.536118" cx="37.136117" class="st11" id="XMLID_20_"/>
   <circle r="1" cy="29.536118" cx="37.136117" class="st12" id="XMLID_21_"/>
  </g>
 </g>
</svg>